<?xml version="1.0" encoding="utf-8" standalone="no"?>
<!DOCTYPE svg PUBLIC "-//W3C//DTD SVG 1.1//EN"
  "http://www.w3.org/Graphics/SVG/1.1/DTD/svg11.dtd">
<!-- Created with matplotlib (http://matplotlib.org/) -->
<svg height="720pt" version="1.1" viewBox="0 0 720 720" width="720pt" xmlns="http://www.w3.org/2000/svg" xmlns:xlink="http://www.w3.org/1999/xlink">
 <defs>
  <style type="text/css">
*{stroke-linecap:butt;stroke-linejoin:round;}
  </style>
 </defs>
 <g id="figure_1">
  <g id="patch_1">
   <path d="
M0 720
L720 720
L720 0
L0 0
z
" style="fill:#ffffff;"/>
  </g>
  <g id="axes_1">
   <g id="patch_2">
    <path d="
M90 630
L648 630
L648 72
L90 72
L90 630" style="fill:none;"/>
   </g>
   <g id="PathCollection_1">
    <defs>
     <path d="
M0 2.23607
C0.593012 2.23607 1.16182 2.00046 1.58114 1.58114
C2.00046 1.16182 2.23607 0.593012 2.23607 0
C2.23607 -0.593012 2.00046 -1.16182 1.58114 -1.58114
C1.16182 -2.00046 0.593012 -2.23607 0 -2.23607
C-0.593012 -2.23607 -1.16182 -2.00046 -1.58114 -1.58114
C-2.00046 -1.16182 -2.23607 -0.593012 -2.23607 0
C-2.23607 0.593012 -2.00046 1.16182 -1.58114 1.58114
C-1.16182 2.00046 -0.593012 2.23607 0 2.23607
z
" id="md48142097f" style="stroke:#000000;"/>
    </defs>
    <g clip-path="url(#p033683574c)">
     <use style="fill:#0000ff;stroke:#000000;" x="339.903189503" xlink:href="#md48142097f" y="167.289968649"/>
     <use style="fill:#0000ff;stroke:#000000;" x="339.903189503" xlink:href="#md48142097f" y="534.710031351"/>
     <use style="fill:#0000ff;stroke:#000000;" x="284.557767048" xlink:href="#md48142097f" y="185.272786501"/>
     <use style="fill:#0000ff;stroke:#000000;" x="284.557767048" xlink:href="#md48142097f" y="516.727213499"/>
     <use style="fill:#0000ff;stroke:#000000;" x="237.478138699" xlink:href="#md48142097f" y="219.478138699"/>
     <use style="fill:#0000ff;stroke:#000000;" x="237.478138699" xlink:href="#md48142097f" y="482.521861301"/>
     <use style="fill:#0000ff;stroke:#000000;" x="185.289968649" xlink:href="#md48142097f" y="321.903189503"/>
     <use style="fill:#0000ff;stroke:#000000;" x="185.289968649" xlink:href="#md48142097f" y="380.096810497"/>
     <use style="fill:#0000ff;stroke:#000000;" x="203.272786501" xlink:href="#md48142097f" y="266.557767048"/>
     <use style="fill:#0000ff;stroke:#000000;" x="203.272786501" xlink:href="#md48142097f" y="435.442232952"/>
    </g>
   </g>
   <g id="patch_3">
    <path d="
M90 72
L648 72" style="fill:none;stroke:#000000;stroke-linecap:square;stroke-linejoin:miter;"/>
   </g>
   <g id="patch_4">
    <path d="
M648 630
L648 72" style="fill:none;stroke:#000000;stroke-linecap:square;stroke-linejoin:miter;"/>
   </g>
   <g id="patch_5">
    <path d="
M90 630
L648 630" style="fill:none;stroke:#000000;stroke-linecap:square;stroke-linejoin:miter;"/>
   </g>
   <g id="patch_6">
    <path d="
M90 630
L90 72" style="fill:none;stroke:#000000;stroke-linecap:square;stroke-linejoin:miter;"/>
   </g>
   <g id="matplotlib.axis_1">
    <g id="xtick_1">
     <g id="line2d_1">
      <path clip-path="url(#p033683574c)" d="
M90 630
L90 72" style="fill:none;stroke:#000000;stroke-dasharray:1.000000,3.000000;stroke-dashoffset:0.0;stroke-width:0.5;"/>
     </g>
     <g id="line2d_2">
      <defs>
       <path d="
M0 0
L0 -4" id="mc7db9fdffb" style="stroke:#000000;stroke-width:0.5;"/>
      </defs>
      <g>
       <use style="stroke:#000000;stroke-width:0.5;" x="90.0" xlink:href="#mc7db9fdffb" y="630.0"/>
      </g>
     </g>
     <g id="line2d_3">
      <defs>
       <path d="
M0 0
L0 4" id="m5a7d422ac3" style="stroke:#000000;stroke-width:0.5;"/>
      </defs>
      <g>
       <use style="stroke:#000000;stroke-width:0.5;" x="90.0" xlink:href="#m5a7d422ac3" y="72.0"/>
      </g>
     </g>
     <g id="text_1">
      <!-- $-1.5$ -->
      <defs>
       <path d="
M12.7031 60.5781
C25.5938 60.5781 31.2031 60.5781 43.2031 60.5781
L43.7031 60.875
C43.5 62.6719 43.5 63.4688 43.5 64.7812
C43.5 66.2031 43.5 67 43.7031 68.7969
L43.2031 69
C35.7031 69 31.2031 69 25.7969 69
C20.2969 69 15.9062 69 8.40625 69
L7.90625 68.7969
C8 62.6719 8.09375 58.2656 8.09375 55.0469
C8.09375 46.5156 7.79688 36.875 7.5 32.4531
L9.5 31.8438
C14.2031 36.5938 16.9062 38 21.7969 38
C31.4062 38 37.4062 31.1406 37.4062 20.25
C37.4062 9.0625 31 2.5 20.0938 2.5
C14.7031 2.5 9.70312 4.32812 8.29688 6.9375
L3.70312 15.2031
L1.29688 13.7969
C3.59375 8.0625 4.79688 4.84375 6.20312 0.421875
C9 -1.10938 13 -2 17.2969 -2
C24 -2 31.0938 0.921875 36.5938 5.75
C42.7031 11.1875 45.9062 18.0312 45.9062 25.4688
C45.9062 36.8594 37.7969 44.9062 26.4062 44.9062
C21.5938 44.9062 18 43.6094 11.7969 39.9062
z
" id="URW_Palladio_L_Roman-53"/>
       <path d="
M6.70312 56
L7.70312 56
L20.5938 61.4062
C20.7031 61.5 20.7969 61.5 20.9062 61.5
C21.5 61.5 21.7031 60.6094 21.7031 58.2031
L21.7031 9.53125
C21.7031 4.29688 20.5938 3.20312 15.2031 3.20312
L9.59375 3.20312
L9.59375 0
C25 0 25 0 26.0938 0
C27.4062 0 29.5938 0 33 0
C34.2031 0 37.7031 0 41.7969 0
L41.7969 3.20312
L36.5938 3.20312
C31.0938 3.20312 30.0938 4.29688 30.0938 9.53125
L30.0938 69.0156
L28.7031 69.5156
C22.2031 66.1406 15.0938 63.1875 6 60.0156
z
" id="URW_Palladio_L_Roman-49"/>
       <path d="
M12.4062 11.625
C9.40625 11.625 6.70312 8.8125 6.70312 5.8125
C6.70312 2.79688 9.40625 0 12.2969 0
C15.5 0 18.2969 2.70312 18.2969 5.8125
C18.2969 8.8125 15.5 11.625 12.4062 11.625" id="URW_Palladio_L_Roman-46"/>
       <path d="
M65.9062 23
C67.5938 23 69.4062 23 69.4062 25
C69.4062 27 67.5938 27 65.9062 27
L11.7969 27
C10.0938 27 8.29688 27 8.29688 25
C8.29688 23 10.0938 23 11.7969 23
z
" id="CMSY10-0"/>
      </defs>
      <g transform="translate(69.3525287253 648.256474743)scale(0.2 -0.2)">
       <use transform="scale(1.0381069159596825)" xlink:href="#CMSY10-0"/>
       <use transform="translate(81.94169630000779 0.0)scale(0.9962640099626402)" xlink:href="#URW_Palladio_L_Roman-49"/>
       <use transform="translate(131.7548967981398 0.0)scale(0.9962640099626402)" xlink:href="#URW_Palladio_L_Roman-46"/>
       <use transform="translate(156.6614970472058 0.0)scale(0.9962640099626402)" xlink:href="#URW_Palladio_L_Roman-53"/>
      </g>
     </g>
    </g>
    <g id="xtick_2">
     <g id="line2d_4">
      <path clip-path="url(#p033683574c)" d="
M183 630
L183 72" style="fill:none;stroke:#000000;stroke-dasharray:1.000000,3.000000;stroke-dashoffset:0.0;stroke-width:0.5;"/>
     </g>
     <g id="line2d_5">
      <g>
       <use style="stroke:#000000;stroke-width:0.5;" x="183.0" xlink:href="#mc7db9fdffb" y="630.0"/>
      </g>
     </g>
     <g id="line2d_6">
      <g>
       <use style="stroke:#000000;stroke-width:0.5;" x="183.0" xlink:href="#m5a7d422ac3" y="72.0"/>
      </g>
     </g>
     <g id="text_2">
      <!-- $-1.0$ -->
      <defs>
       <path d="
M26.2969 69
C10.7969 69 2.90625 56.6875 2.90625 32.4531
C2.90625 20.7188 5 10.625 8.5 5.71875
C12 0.796875 17.5938 -2 23.7969 -2
C38.9062 -2 46.5 11.0156 46.5 36.6562
C46.5 58.5781 40 69 26.2969 69
M24.5 65.5
C34.2031 65.5 38.0938 55.6875 38.0938 31.6406
C38.0938 10.3281 34.2969 1.5 25.0938 1.5
C15.4062 1.5 11.2969 11.625 11.2969 36.0625
C11.2969 57.1875 15 65.5 24.5 65.5" id="URW_Palladio_L_Roman-48"/>
      </defs>
      <g transform="translate(162.352528725 648.256474743)scale(0.2 -0.2)">
       <use transform="scale(1.0381069159596825)" xlink:href="#CMSY10-0"/>
       <use transform="translate(81.94169630000779 0.0)scale(0.9962640099626402)" xlink:href="#URW_Palladio_L_Roman-49"/>
       <use transform="translate(131.7548967981398 0.0)scale(0.9962640099626402)" xlink:href="#URW_Palladio_L_Roman-46"/>
       <use transform="translate(156.6614970472058 0.0)scale(0.9962640099626402)" xlink:href="#URW_Palladio_L_Roman-48"/>
      </g>
     </g>
    </g>
    <g id="xtick_3">
     <g id="line2d_7">
      <path clip-path="url(#p033683574c)" d="
M276 630
L276 72" style="fill:none;stroke:#000000;stroke-dasharray:1.000000,3.000000;stroke-dashoffset:0.0;stroke-width:0.5;"/>
     </g>
     <g id="line2d_8">
      <g>
       <use style="stroke:#000000;stroke-width:0.5;" x="276.0" xlink:href="#mc7db9fdffb" y="630.0"/>
      </g>
     </g>
     <g id="line2d_9">
      <g>
       <use style="stroke:#000000;stroke-width:0.5;" x="276.0" xlink:href="#m5a7d422ac3" y="72.0"/>
      </g>
     </g>
     <g id="text_3">
      <!-- $-0.5$ -->
      <g transform="translate(255.352528725 648.256474743)scale(0.2 -0.2)">
       <use transform="scale(1.0381069159596825)" xlink:href="#CMSY10-0"/>
       <use transform="translate(81.94169630000779 0.0)scale(0.9962640099626402)" xlink:href="#URW_Palladio_L_Roman-48"/>
       <use transform="translate(131.7548967981398 0.0)scale(0.9962640099626402)" xlink:href="#URW_Palladio_L_Roman-46"/>
       <use transform="translate(156.6614970472058 0.0)scale(0.9962640099626402)" xlink:href="#URW_Palladio_L_Roman-53"/>
      </g>
     </g>
    </g>
    <g id="xtick_4">
     <g id="line2d_10">
      <path clip-path="url(#p033683574c)" d="
M369 630
L369 72" style="fill:none;stroke:#000000;stroke-dasharray:1.000000,3.000000;stroke-dashoffset:0.0;stroke-width:0.5;"/>
     </g>
     <g id="line2d_11">
      <g>
       <use style="stroke:#000000;stroke-width:0.5;" x="369.0" xlink:href="#mc7db9fdffb" y="630.0"/>
      </g>
     </g>
     <g id="line2d_12">
      <g>
       <use style="stroke:#000000;stroke-width:0.5;" x="369.0" xlink:href="#m5a7d422ac3" y="72.0"/>
      </g>
     </g>
     <g id="text_4">
      <!-- $0.0$ -->
      <g transform="translate(356.546699875 648.256474743)scale(0.2 -0.2)">
       <use transform="scale(0.9962640099626402)" xlink:href="#URW_Palladio_L_Roman-48"/>
       <use transform="translate(49.81320049813201 0.0)scale(0.9962640099626402)" xlink:href="#URW_Palladio_L_Roman-46"/>
       <use transform="translate(74.71980074719801 0.0)scale(0.9962640099626402)" xlink:href="#URW_Palladio_L_Roman-48"/>
      </g>
     </g>
    </g>
    <g id="xtick_5">
     <g id="line2d_13">
      <path clip-path="url(#p033683574c)" d="
M462 630
L462 72" style="fill:none;stroke:#000000;stroke-dasharray:1.000000,3.000000;stroke-dashoffset:0.0;stroke-width:0.5;"/>
     </g>
     <g id="line2d_14">
      <g>
       <use style="stroke:#000000;stroke-width:0.5;" x="462.0" xlink:href="#mc7db9fdffb" y="630.0"/>
      </g>
     </g>
     <g id="line2d_15">
      <g>
       <use style="stroke:#000000;stroke-width:0.5;" x="462.0" xlink:href="#m5a7d422ac3" y="72.0"/>
      </g>
     </g>
     <g id="text_5">
      <!-- $0.5$ -->
      <g transform="translate(449.546699875 648.256474743)scale(0.2 -0.2)">
       <use transform="scale(0.9962640099626402)" xlink:href="#URW_Palladio_L_Roman-48"/>
       <use transform="translate(49.81320049813201 0.0)scale(0.9962640099626402)" xlink:href="#URW_Palladio_L_Roman-46"/>
       <use transform="translate(74.71980074719801 0.0)scale(0.9962640099626402)" xlink:href="#URW_Palladio_L_Roman-53"/>
      </g>
     </g>
    </g>
    <g id="xtick_6">
     <g id="line2d_16">
      <path clip-path="url(#p033683574c)" d="
M555 630
L555 72" style="fill:none;stroke:#000000;stroke-dasharray:1.000000,3.000000;stroke-dashoffset:0.0;stroke-width:0.5;"/>
     </g>
     <g id="line2d_17">
      <g>
       <use style="stroke:#000000;stroke-width:0.5;" x="555.0" xlink:href="#mc7db9fdffb" y="630.0"/>
      </g>
     </g>
     <g id="line2d_18">
      <g>
       <use style="stroke:#000000;stroke-width:0.5;" x="555.0" xlink:href="#m5a7d422ac3" y="72.0"/>
      </g>
     </g>
     <g id="text_6">
      <!-- $1.0$ -->
      <g transform="translate(542.546699875 648.256474743)scale(0.2 -0.2)">
       <use transform="scale(0.9962640099626402)" xlink:href="#URW_Palladio_L_Roman-49"/>
       <use transform="translate(49.81320049813201 0.0)scale(0.9962640099626402)" xlink:href="#URW_Palladio_L_Roman-46"/>
       <use transform="translate(74.71980074719801 0.0)scale(0.9962640099626402)" xlink:href="#URW_Palladio_L_Roman-48"/>
      </g>
     </g>
    </g>
    <g id="xtick_7">
     <g id="line2d_19">
      <path clip-path="url(#p033683574c)" d="
M648 630
L648 72" style="fill:none;stroke:#000000;stroke-dasharray:1.000000,3.000000;stroke-dashoffset:0.0;stroke-width:0.5;"/>
     </g>
     <g id="line2d_20">
      <g>
       <use style="stroke:#000000;stroke-width:0.5;" x="648.0" xlink:href="#mc7db9fdffb" y="630.0"/>
      </g>
     </g>
     <g id="line2d_21">
      <g>
       <use style="stroke:#000000;stroke-width:0.5;" x="648.0" xlink:href="#m5a7d422ac3" y="72.0"/>
      </g>
     </g>
     <g id="text_7">
      <!-- $1.5$ -->
      <g transform="translate(635.546699875 648.256474743)scale(0.2 -0.2)">
       <use transform="scale(0.9962640099626402)" xlink:href="#URW_Palladio_L_Roman-49"/>
       <use transform="translate(49.81320049813201 0.0)scale(0.9962640099626402)" xlink:href="#URW_Palladio_L_Roman-46"/>
       <use transform="translate(74.71980074719801 0.0)scale(0.9962640099626402)" xlink:href="#URW_Palladio_L_Roman-53"/>
      </g>
     </g>
    </g>
    <g id="text_8">
     <!-- Re(z) -->
     <defs>
      <path d="
M43.7031 6.98438
L42.4062 7.98438
C36 4.20312 33.7031 3.3125 29.4062 3.3125
C22.9062 3.3125 17.5 6.21875 14.7031 11.1094
C12.7969 14.3906 12.0938 17.2031 11.9062 23
L26.5 23
C33.4062 23 37.7031 23 44.5938 24.125
C44.7031 25.5312 44.7969 26.4531 44.7969 27.6719
C44.7969 39.375 37.4062 47 26.2031 47
C22.5 47 18.2031 45.6875 14.0938 43.2812
C5.90625 38.5781 2.59375 32.3594 2.59375 21.9375
C2.59375 15.625 4.09375 10.2188 6.79688 6.40625
C10.7969 1.10938 17.5 -2 25 -2
C28.7031 -2 32.4062 -1.20312 36.5 0.578125
C39.2031 1.6875 41.2969 2.98438 41.7031 3.59375
z

M35.9062 26.4062
C30.7031 26.4062 28.2969 26.4062 24.7031 26.4062
C20.0938 26.4062 17.5 26.4062 12.0938 26.9062
C12.0938 31.6719 12.5 33.8906 13.7969 36.5156
C15.9062 40.9688 20.2031 43.6875 25 43.6875
C28.2969 43.6875 30.9062 42.3594 32.7031 39.5938
C34.9062 36.2344 35.5938 33.2656 35.9062 26.4062" id="URW_Palladio_L_Roman-101"/>
      <path d="
M5.09375 -21.5469
C12 -15.0312 14.9062 -11.7188 18 -6.8125
C24.0938 2.90625 27.2969 14.5312 27.2969 26.5469
C27.2969 34.2656 26 41.375 23.4062 48.0938
C19.5938 57.8125 15.5 63.3281 5.09375 72.75
L3.20312 70.1406
C10.5 61.5156 13.2031 56.8125 15.7031 48.5938
C17.7031 42.0781 18.7031 34.9688 18.7031 26.6562
C18.7031 18.1406 17.7031 10.5156 15.5938 3.3125
C13 -5.71875 10.4062 -10.5156 3.20312 -19.4375
z
" id="URW_Palladio_L_Roman-41"/>
      <path d="
M45.5 43.1875
L45.5 46
C38.5 46 35.5 46 31.7031 46
L6.90625 46
C6.70312 41 6.59375 39.8281 6 33.0469
L9 33.0469
L10.2031 39.7969
C10.5938 41.8906 12.4062 42.3906 19.7969 42.3906
L34.0938 42.3906
C32 39.1094 30.2969 36.8281 27.5938 33.4375
L10.5938 12.3438
C8.20312 9.45312 6.79688 7.76562 1.59375 1.90625
L2.20312 0
C12.5938 0 13.2031 0 17.5 0
L45.0938 0
C45.0938 2.26562 45.2969 4.64062 46 9.40625
L46.5938 14.0469
L43.5938 14.0469
L41.7969 6.20312
C41.4062 4.40625 37.2031 3.70312 27.5938 3.70312
L14.0938 3.70312
z
" id="URW_Palladio_L_Roman-122"/>
      <path d="
M21.5938 64.7969
C25 65.5938 28 66 31.4062 66
C41.7969 66 47.5938 61.1719 47.5938 52.6094
C47.5938 43.3594 40.2969 37.5156 28.7031 37.5156
C28 37.5156 27.0938 37.5156 25.7969 37.6094
L25.2031 36.4062
C26.2969 35.0938 26.5938 34.7031 27.7969 33.3906
C29.2031 31.7969 29.5 31.3906 30.4062 30.1875
L48.7969 5.40625
C49.4062 4.60938 50 3.79688 50.5938 3.10938
C51.2969 2.20312 51.9062 1.29688 52.9062 0
C57.5938 0 58.5938 0 59.7031 0
C60.5938 0 60.5938 0 66.9062 0
L66.9062 2.90625
C63.7031 3.20312 62.0938 3.8125 60.7969 5.53125
L38.0938 35.2969
C43.7031 36.7031 46.2969 37.7969 49.5938 40.0938
C54.7969 43.7969 57.5938 48.7969 57.5938 54.6094
C57.5938 64.2031 50.5938 69.6094 38.2031 69.6094
L36.5938 69.6094
C23.5938 69.6094 23.5938 69.6094 20.2031 69.6094
C16.9062 69.6094 16.9062 69.6094 2.90625 69.6094
L2.90625 66.7969
L7 66.2969
C11.5938 66.2969 12.0938 65.375 12.0938 57.4844
L12.0938 12.0156
C12.0938 4.01562 11.5938 3.20312 7 3.20312
L2.20312 3.20312
L2.20312 0
C8.09375 0 11.5938 0 16.7969 0
C22 0 25.5938 0 31.5 0
L31.5 3.20312
L26.7031 3.20312
C22.0938 3.20312 21.5938 4 21.5938 12
z
" id="URW_Palladio_L_Roman-82"/>
      <path d="
M30.0938 -19.4375
C22.9062 -10.5156 20.2969 -5.71875 17.7031 3.3125
C15.5938 10.5156 14.5938 18.1406 14.5938 26.6562
C14.5938 34.9688 15.5938 42.0781 17.5 48.5938
C20.0938 56.9062 22.7969 61.625 30.0938 70.1406
L28.2031 72.75
C17.7969 63.4219 13.7031 57.9219 9.90625 48.0938
C7.29688 41.375 6 34.2656 6 26.6562
C6 15.9375 8.5 5.8125 13.2969 -3.20312
C16.7969 -9.92188 20 -13.8281 28.2031 -21.5469
z
" id="URW_Palladio_L_Roman-40"/>
     </defs>
     <g transform="translate(352.86966235 668.854826019)scale(0.14 -0.14)">
      <use transform="scale(0.9962640099626402)" xlink:href="#URW_Palladio_L_Roman-82"/>
      <use transform="translate(66.54969401852429 0.0)scale(0.9962640099626402)" xlink:href="#URW_Palladio_L_Roman-101"/>
      <use transform="translate(114.26998912768525 0.0)scale(0.9962640099626402)" xlink:href="#URW_Palladio_L_Roman-40"/>
      <use transform="translate(147.44521885702056 0.0)scale(0.9962640099626402)" xlink:href="#URW_Palladio_L_Roman-122"/>
      <use transform="translate(197.25841935515257 0.0)scale(0.9962640099626402)" xlink:href="#URW_Palladio_L_Roman-41"/>
     </g>
    </g>
   </g>
   <g id="matplotlib.axis_2">
    <g id="ytick_1">
     <g id="line2d_22">
      <path clip-path="url(#p033683574c)" d="
M90 630
L648 630" style="fill:none;stroke:#000000;stroke-dasharray:1.000000,3.000000;stroke-dashoffset:0.0;stroke-width:0.5;"/>
     </g>
     <g id="line2d_23">
      <defs>
       <path d="
M0 0
L4 0" id="md7965d1ba0" style="stroke:#000000;stroke-width:0.5;"/>
      </defs>
      <g>
       <use style="stroke:#000000;stroke-width:0.5;" x="90.0" xlink:href="#md7965d1ba0" y="630.0"/>
      </g>
     </g>
     <g id="line2d_24">
      <defs>
       <path d="
M0 0
L-4 0" id="md9a1c1a7cd" style="stroke:#000000;stroke-width:0.5;"/>
      </defs>
      <g>
       <use style="stroke:#000000;stroke-width:0.5;" x="648.0" xlink:href="#md9a1c1a7cd" y="630.0"/>
      </g>
     </g>
     <g id="text_9">
      <!-- $-1.5$ -->
      <g transform="translate(44.7050574506 634.318826374)scale(0.2 -0.2)">
       <use transform="scale(1.0381069159596825)" xlink:href="#CMSY10-0"/>
       <use transform="translate(81.94169630000779 0.0)scale(0.9962640099626402)" xlink:href="#URW_Palladio_L_Roman-49"/>
       <use transform="translate(131.7548967981398 0.0)scale(0.9962640099626402)" xlink:href="#URW_Palladio_L_Roman-46"/>
       <use transform="translate(156.6614970472058 0.0)scale(0.9962640099626402)" xlink:href="#URW_Palladio_L_Roman-53"/>
      </g>
     </g>
    </g>
    <g id="ytick_2">
     <g id="line2d_25">
      <path clip-path="url(#p033683574c)" d="
M90 537
L648 537" style="fill:none;stroke:#000000;stroke-dasharray:1.000000,3.000000;stroke-dashoffset:0.0;stroke-width:0.5;"/>
     </g>
     <g id="line2d_26">
      <g>
       <use style="stroke:#000000;stroke-width:0.5;" x="90.0" xlink:href="#md7965d1ba0" y="537.0"/>
      </g>
     </g>
     <g id="line2d_27">
      <g>
       <use style="stroke:#000000;stroke-width:0.5;" x="648.0" xlink:href="#md9a1c1a7cd" y="537.0"/>
      </g>
     </g>
     <g id="text_10">
      <!-- $-1.0$ -->
      <g transform="translate(44.7050574506 541.318826374)scale(0.2 -0.2)">
       <use transform="scale(1.0381069159596825)" xlink:href="#CMSY10-0"/>
       <use transform="translate(81.94169630000779 0.0)scale(0.9962640099626402)" xlink:href="#URW_Palladio_L_Roman-49"/>
       <use transform="translate(131.7548967981398 0.0)scale(0.9962640099626402)" xlink:href="#URW_Palladio_L_Roman-46"/>
       <use transform="translate(156.6614970472058 0.0)scale(0.9962640099626402)" xlink:href="#URW_Palladio_L_Roman-48"/>
      </g>
     </g>
    </g>
    <g id="ytick_3">
     <g id="line2d_28">
      <path clip-path="url(#p033683574c)" d="
M90 444
L648 444" style="fill:none;stroke:#000000;stroke-dasharray:1.000000,3.000000;stroke-dashoffset:0.0;stroke-width:0.5;"/>
     </g>
     <g id="line2d_29">
      <g>
       <use style="stroke:#000000;stroke-width:0.5;" x="90.0" xlink:href="#md7965d1ba0" y="444.0"/>
      </g>
     </g>
     <g id="line2d_30">
      <g>
       <use style="stroke:#000000;stroke-width:0.5;" x="648.0" xlink:href="#md9a1c1a7cd" y="444.0"/>
      </g>
     </g>
     <g id="text_11">
      <!-- $-0.5$ -->
      <g transform="translate(44.7050574506 448.318826374)scale(0.2 -0.2)">
       <use transform="scale(1.0381069159596825)" xlink:href="#CMSY10-0"/>
       <use transform="translate(81.94169630000779 0.0)scale(0.9962640099626402)" xlink:href="#URW_Palladio_L_Roman-48"/>
       <use transform="translate(131.7548967981398 0.0)scale(0.9962640099626402)" xlink:href="#URW_Palladio_L_Roman-46"/>
       <use transform="translate(156.6614970472058 0.0)scale(0.9962640099626402)" xlink:href="#URW_Palladio_L_Roman-53"/>
      </g>
     </g>
    </g>
    <g id="ytick_4">
     <g id="line2d_31">
      <path clip-path="url(#p033683574c)" d="
M90 351
L648 351" style="fill:none;stroke:#000000;stroke-dasharray:1.000000,3.000000;stroke-dashoffset:0.0;stroke-width:0.5;"/>
     </g>
     <g id="line2d_32">
      <g>
       <use style="stroke:#000000;stroke-width:0.5;" x="90.0" xlink:href="#md7965d1ba0" y="351.0"/>
      </g>
     </g>
     <g id="line2d_33">
      <g>
       <use style="stroke:#000000;stroke-width:0.5;" x="648.0" xlink:href="#md9a1c1a7cd" y="351.0"/>
      </g>
     </g>
     <g id="text_12">
      <!-- $0.0$ -->
      <g transform="translate(61.0933997509 355.318826374)scale(0.2 -0.2)">
       <use transform="scale(0.9962640099626402)" xlink:href="#URW_Palladio_L_Roman-48"/>
       <use transform="translate(49.81320049813201 0.0)scale(0.9962640099626402)" xlink:href="#URW_Palladio_L_Roman-46"/>
       <use transform="translate(74.71980074719801 0.0)scale(0.9962640099626402)" xlink:href="#URW_Palladio_L_Roman-48"/>
      </g>
     </g>
    </g>
    <g id="ytick_5">
     <g id="line2d_34">
      <path clip-path="url(#p033683574c)" d="
M90 258
L648 258" style="fill:none;stroke:#000000;stroke-dasharray:1.000000,3.000000;stroke-dashoffset:0.0;stroke-width:0.5;"/>
     </g>
     <g id="line2d_35">
      <g>
       <use style="stroke:#000000;stroke-width:0.5;" x="90.0" xlink:href="#md7965d1ba0" y="258.0"/>
      </g>
     </g>
     <g id="line2d_36">
      <g>
       <use style="stroke:#000000;stroke-width:0.5;" x="648.0" xlink:href="#md9a1c1a7cd" y="258.0"/>
      </g>
     </g>
     <g id="text_13">
      <!-- $0.5$ -->
      <g transform="translate(61.0933997509 262.318826374)scale(0.2 -0.2)">
       <use transform="scale(0.9962640099626402)" xlink:href="#URW_Palladio_L_Roman-48"/>
       <use transform="translate(49.81320049813201 0.0)scale(0.9962640099626402)" xlink:href="#URW_Palladio_L_Roman-46"/>
       <use transform="translate(74.71980074719801 0.0)scale(0.9962640099626402)" xlink:href="#URW_Palladio_L_Roman-53"/>
      </g>
     </g>
    </g>
    <g id="ytick_6">
     <g id="line2d_37">
      <path clip-path="url(#p033683574c)" d="
M90 165
L648 165" style="fill:none;stroke:#000000;stroke-dasharray:1.000000,3.000000;stroke-dashoffset:0.0;stroke-width:0.5;"/>
     </g>
     <g id="line2d_38">
      <g>
       <use style="stroke:#000000;stroke-width:0.5;" x="90.0" xlink:href="#md7965d1ba0" y="165.0"/>
      </g>
     </g>
     <g id="line2d_39">
      <g>
       <use style="stroke:#000000;stroke-width:0.5;" x="648.0" xlink:href="#md9a1c1a7cd" y="165.0"/>
      </g>
     </g>
     <g id="text_14">
      <!-- $1.0$ -->
      <g transform="translate(61.0933997509 169.318826374)scale(0.2 -0.2)">
       <use transform="scale(0.9962640099626402)" xlink:href="#URW_Palladio_L_Roman-49"/>
       <use transform="translate(49.81320049813201 0.0)scale(0.9962640099626402)" xlink:href="#URW_Palladio_L_Roman-46"/>
       <use transform="translate(74.71980074719801 0.0)scale(0.9962640099626402)" xlink:href="#URW_Palladio_L_Roman-48"/>
      </g>
     </g>
    </g>
    <g id="ytick_7">
     <g id="line2d_40">
      <path clip-path="url(#p033683574c)" d="
M90 72
L648 72" style="fill:none;stroke:#000000;stroke-dasharray:1.000000,3.000000;stroke-dashoffset:0.0;stroke-width:0.5;"/>
     </g>
     <g id="line2d_41">
      <g>
       <use style="stroke:#000000;stroke-width:0.5;" x="90.0" xlink:href="#md7965d1ba0" y="72.0"/>
      </g>
     </g>
     <g id="line2d_42">
      <g>
       <use style="stroke:#000000;stroke-width:0.5;" x="648.0" xlink:href="#md9a1c1a7cd" y="72.0"/>
      </g>
     </g>
     <g id="text_15">
      <!-- $1.5$ -->
      <g transform="translate(61.0933997509 76.3188263738)scale(0.2 -0.2)">
       <use transform="scale(0.9962640099626402)" xlink:href="#URW_Palladio_L_Roman-49"/>
       <use transform="translate(49.81320049813201 0.0)scale(0.9962640099626402)" xlink:href="#URW_Palladio_L_Roman-46"/>
       <use transform="translate(74.71980074719801 0.0)scale(0.9962640099626402)" xlink:href="#URW_Palladio_L_Roman-53"/>
      </g>
     </g>
    </g>
    <g id="text_16">
     <!-- Im(z) -->
     <defs>
      <path d="
M21.5938 57.2344
C21.5938 65.1875 22.0938 66 26.7031 66
L31.5 66
L31.5 69.1094
C24.2031 69.1094 22 69.1094 16.7969 69.1094
C11.7969 69.1094 9.40625 69.1094 2.20312 69.1094
L2.20312 66
L7 66
C11.5938 66 12.0938 65.1875 12.0938 57.2344
L12.0938 11.9688
C12.0938 4 11.5938 3.20312 7 3.20312
L2.20312 3.20312
L2.20312 0
C8.09375 0 11.5938 0 16.7969 0
C22 0 25.5938 0 31.5 0
L31.5 3.20312
L26.7031 3.20312
C22.0938 3.20312 21.5938 4 21.5938 11.9688
z
" id="URW_Palladio_L_Roman-73"/>
      <path d="
M1.79688 40.0781
L5.5 40.0781
C9.5 40.0781 9.90625 39.375 9.90625 32.7188
L9.90625 10.0469
C9.90625 3.70312 9.59375 3 6.20312 3
L1.59375 3
L1.59375 -0.109375
C11.2031 -0.109375 11.5 -0.109375 14.2969 -0.109375
C17.0938 -0.109375 19.7031 -0.109375 26.2031 -0.109375
L26.2031 2.79688
L22 3.20312
C18.5938 3.20312 18.2969 3.90625 18.2969 10.2188
L18.2969 31.4688
C18.2969 35.9688 24.9062 40.875 30.9062 40.875
C36.2969 40.875 40 35.7344 40 28.0938
L40 10.0469
C40 3.70312 39.7031 3 36.2969 3
L31.7031 3
L31.7031 -0.109375
C41.7031 -0.109375 41.7031 0.09375 44.2031 0.09375
C46.7031 0.09375 46.7031 -0.109375 56.7031 -0.109375
L56.7031 3
L52.0938 3
C48.7031 3 48.4062 3.70312 48.4062 10.0469
L48.4062 31.4219
C48.4062 35.9375 55 40.875 61 40.875
C66.4062 40.875 70.0938 35.7812 70.0938 28.2188
L70.0938 -0.109375
C76.2031 -0.109375 76.2969 -0.109375 78 -0.109375
C79.2969 -0.109375 79.2969 -0.109375 86.9062 -0.109375
L86.9062 3
L82.2031 3
C78.7969 3 78.5 3.70312 78.5 10.0469
L78.5 30.7812
C78.5 40.75 72.7031 47 63.5 47
C60 47 57.0938 46.0938 55.2969 44.4844
L47.7031 37.6875
C44.5 44.2812 40.4062 47 33.5 47
C29.7969 47 27 46.0938 25.2031 44.4844
L18.2969 38.0781
L18.2969 46.5938
L17.4062 47
C12.2969 44.8906 7.09375 43.4844 1.79688 42.8906
z
" id="URW_Palladio_L_Roman-109"/>
     </defs>
     <g transform="translate(35.771885094 367.639506149)rotate(-90.0)scale(0.14 -0.14)">
      <use transform="scale(0.9962640099626402)" xlink:href="#URW_Palladio_L_Roman-73"/>
      <use transform="translate(33.57407889360212 0.0)scale(0.9962640099626402)" xlink:href="#URW_Palladio_L_Roman-109"/>
      <use transform="translate(121.54375316197074 0.0)scale(0.9962640099626402)" xlink:href="#URW_Palladio_L_Roman-40"/>
      <use transform="translate(154.71898289130604 0.0)scale(0.9962640099626402)" xlink:href="#URW_Palladio_L_Roman-122"/>
      <use transform="translate(204.53218338943807 0.0)scale(0.9962640099626402)" xlink:href="#URW_Palladio_L_Roman-41"/>
     </g>
    </g>
   </g>
   <g id="text_17">
    <!-- Diagrama de polos e zeros: Butterworth, $\omega = 1$, $N = 10$ -->
    <defs>
     <path d="
M9.79688 38.6875
L9.79688 9.67188
C9.79688 2.21875 13.0938 -1 20.7969 -1
C23.0938 -1 25.5 -0.5 26.0938 0.203125
L30.9062 5.51562
L29.5938 7.23438
C27.0938 5.8125 25.5938 5.3125 23.7031 5.3125
C19.7969 5.3125 18.2031 7.34375 18.2031 12.3125
L18.2031 38.8906
L31 38.8906
L31.9062 44
L18.2031 44
L18.2031 47.75
C18.2031 51.8906 18.5 55.4219 19.2969 61.7344
L18.0938 62.8281
C15.7031 61.3281 12.7031 60.0312 9.59375 59.0312
C9.90625 56.0156 10 54.1094 10 51.1094
L10 44.0938
L2.20312 40.5938
L2.20312 38.6875
z
" id="URW_Palladio_L_Roman-116"/>
     <path d="
M1 40.0781
L4.70312 40.0781
C8.70312 40.0781 9.09375 39.375 9.09375 32.7344
L9.09375 -17.8438
C9.09375 -24.1875 8.79688 -24.8906 5.40625 -24.8906
L0.796875 -24.8906
L0.796875 -28
C10.7969 -28 10.7969 -28 13.2969 -28
C15.7969 -28 15.7969 -28 25.7969 -28
L25.7969 -24.8906
L21.2031 -24.8906
C17.7969 -24.8906 17.5 -24.1719 17.5 -17.7812
L17.5 1.39062
C20.5 -0.40625 23.7031 -1.10938 28.2031 -1.10938
C31.0938 -1.10938 33.7031 -0.5 35.2969 0.5
L46.7031 7.89062
C50.7031 10.5 55.4062 20.7812 55.4062 27.1875
C55.4062 38.2969 46.2031 47 34.5938 47
C30.9062 47 27.2969 45.9844 25.7031 44.4844
L17.5 36.9844
L17.5 46.5938
L16.5938 47
C11.5 44.8906 6.29688 43.4844 1 42.8906
z

M17.5 30.6875
C17.5 32.0781 18 33.1875 19.2969 34.8906
C22.2031 38.5781 26.2969 40.4844 31.2969 40.4844
C40.7031 40.4844 46.7031 33.8906 46.7031 23.5
C46.7031 12.2969 40 4 31 4
C25.5 4 21.4062 5.8125 17.5 9.89062
z
" id="URW_Palladio_L_Roman-112"/>
     <path d="
M33.7969 69
C19.9062 69 19.9062 69 18.4062 69
C16.5 69 16.5 69 2.59375 69
L2.59375 66.1875
L6.20312 65.8906
C10.9062 65.4844 11.2969 64.7812 11.2969 56.9219
L11.2969 9.67188
C11.2969 6 10.5 3.79688 9.09375 3.20312
L6.5 2.20312
L6.5 0
C13.4062 0 15.5 0 17.4062 0
C18.5 0 19.5938 0 20.7969 0
C28.7969 0 28.7969 0 29.7969 0
C37.0938 0 43.7031 1.78125 48.2031 5.0625
C54.0938 9.21875 57.5938 15.9688 57.5938 22.9219
C57.5938 27.9844 55.5938 32.0469 51.7969 34.7344
C48 37.5156 44.5938 38.4062 36.9062 39
C41.7969 39.9844 44.0938 40.8906 46.9062 42.7812
C51.7031 46.0469 54.2031 50.3281 54.2031 55.5
C54.2031 64.2344 47.9062 69 36.2969 69
z

M20.7969 36.2969
C24.7031 36.2969 25.5938 36.2969 27.5 36.2969
C41 36.2969 47.2969 31.4531 47.2969 20.8594
C47.2969 10.3438 40.4062 4.10938 28.5 4.10938
C25.5938 4.10938 23.2969 4.3125 20.7969 4.90625
z

M20.7969 64.3906
C23.4062 64.9844 25.7031 65.1875 28.9062 65.1875
C39.5938 65.1875 44.2969 61.5938 44.2969 53.3438
C44.2969 44.6719 38.2969 40 26.9062 40
C25.2031 40 23.9062 40 20.7969 40
z
" id="URW_Palladio_L_Roman-66"/>
     <path d="
M41.2969 47
C33.0938 27.9375 31.5938 24.5469 25.4062 10.5781
L17 38.1875
C16.7031 39.0938 16.5938 39.8906 16.5938 40.6875
C16.5938 42.1875 17.9062 43 20.4062 43
L24.4062 43
L24.4062 45.8125
C14.5 45.8125 14.5 45.8125 12.5 45.8125
C10.5 45.8125 10.5 45.8125 0.59375 45.8125
L0.59375 43.2031
L3.40625 43
C6.20312 42.7969 7.5 40.8125 10 33.0312
L20.2031 -0.5
L24.9062 -0.5
L34.7031 22.4531
C35.2031 23.6562 36.2969 26.0469 37.9062 29.4375
L39.9062 33.625
L53.5 -0.5
L58.0938 -0.5
C58.7969 1.59375 59.5938 3.89062 60.4062 6.07812
C62.4062 11.9844 64.5938 18.1562 65 18.7656
L71.7969 34.3125
C74.7969 41.0156 76 42.7031 78.2031 43
L80.7969 43.2031
L80.7969 45.8125
C72.5938 45.8125 72.5938 45.8125 71 45.8125
C69.4062 45.8125 69.4062 45.8125 61.2031 45.8125
L61.2031 43
L64.5938 43
C67.0938 43 68.5 41.7969 68.5 39.9844
C68.5 38.8906 68.2969 37.6875 67.7969 36.3906
L62.7969 22.3906
C62 20.1875 61.2031 18.1719 58 9.96875
L46.5 38.9062
C45.0938 42.2969 44.4062 44.2969 43.5938 47
z
" id="URW_Palladio_L_Roman-119"/>
     <path d="
M32.4062 8.40625
L31.9062 -0.015625
C38.4062 -0.015625 38.4062 -0.015625 39.7031 -0.015625
C40.2031 -0.015625 42.7031 -0.015625 47.0938 -0.015625
L47.0938 3
L43.2031 3
C40.7969 3 40.4062 3.8125 40.4062 8.71875
L40.4062 27.0469
C40.4062 41.6875 36.2031 47 24.5938 47
C20.2969 47 16.2969 45.8906 12.5 43.6094
L7.20312 40.3906
L7.20312 33.9219
L9.79688 33.2188
L11.0938 36.2969
C13.2031 40.9844 14.2031 41.6875 18.7969 41.6875
C28.2031 41.6875 32.0938 37.9844 32.4062 28.9375
L22.5 27.125
C8.90625 24.6406 3.20312 19.9531 3.20312 11.2812
C3.20312 3.5 7.90625 -1 15.7969 -1
C17.5938 -1 19.2969 -0.703125 20 -0.203125
z

M32.4062 12.5938
C29.5 8.5 23.2031 4.71875 19.2969 4.71875
C15.2969 4.71875 11.7969 8.40625 11.7969 12.6875
C11.7969 16.375 13.7969 19.8594 16.7969 21.75
C19.2969 23.25 24.7969 24.6406 32.4062 25.75
z
" id="URW_Palladio_L_Roman-97"/>
     <path d="
M2.29688 66.5
L7.90625 66.5
C9.70312 66.5 10.4062 65.3906 10.4062 62.375
L10.4062 10.1719
C10.4062 3.8125 10.0938 3.10938 6.70312 3.10938
L2.09375 3.10938
L2.09375 0
C12.0938 0 12.0938 0.203125 14.5938 0.203125
C17.0938 0.203125 17.0938 0 27.0938 0
L27.0938 3.10938
L22.5 3.10938
C19.0938 3.10938 18.7969 3.8125 18.7969 10.1562
L18.7969 72.2031
L17.9062 73.0156
C13.5 71.3125 10.2031 70.5 2.29688 69.2969
z
" id="URW_Palladio_L_Roman-108"/>
     <path d="
M68.7031 32
C70.2031 32 72.0938 32 72.0938 34.0156
C72.0938 36.0156 70.2031 36.0156 68.7969 36.0156
L8.90625 36.0156
C7.5 36.0156 5.59375 36.0156 5.59375 34.0156
C5.59375 32 7.5 32 9 32
z

M68.7969 13
C70.2031 13 72.0938 13 72.0938 15.0156
C72.0938 17.0156 70.2031 17.0156 68.7031 17.0156
L9 17.0156
C7.5 17.0156 5.59375 17.0156 5.59375 15.0156
C5.59375 13 7.5 13 8.90625 13
z
" id="CMR10-61"/>
     <path d="
M12.2969 11.625
C9.29688 11.625 6.59375 8.8125 6.59375 5.8125
C6.59375 2.79688 9.29688 0 12.2031 0
C15.4062 0 18.2031 2.70312 18.2031 5.8125
C18.2031 8.8125 15.4062 11.625 12.2969 11.625
M12.2969 46
C9.29688 46 6.59375 43.2031 6.59375 40.1875
C6.59375 37.1875 9.29688 34.375 12.2031 34.375
C15.4062 34.375 18.2031 37.0781 18.2031 40.0938
C18.2031 43.2031 15.4062 46 12.2969 46" id="URW_Palladio_L_Roman-58"/>
     <path d="
M5.70312 2.20312
L5.70312 0
C17.2969 0 17.2969 0 19.5938 0
C21.4062 0 23 0 24.7969 0
C32.7031 0 32.7031 0 34.0938 0
C46.9062 0 56.5 3.26562 63.5 10.125
C70.7031 17.1719 75.0938 27.8906 75.0938 38.5156
C75.0938 56.9844 61.2969 69 40.2031 69
C39.5 69 38.2031 69 36.4062 69
C31.4062 69 27.0938 69 22.7969 69
C19.0938 69 13.5938 69 2.20312 69
L2.20312 66.1875
L6.20312 65.6875
C10.7969 65.6875 11.2969 64.7812 11.2969 57
L11.2969 9.6875
C11.2969 6.79688 10.4062 4.59375 8.79688 3.8125
z

M20.7969 64.3906
C23.4062 64.8906 26.9062 65.1875 31.9062 65.1875
C39.2031 65.1875 47.2031 63.9062 51.4062 62
C53.5938 61.1094 55.5 59.7188 57.2969 57.9219
C62.0938 53.1562 64.4062 45.9844 64.4062 36.0312
C64.4062 24.9062 61 16.3438 54.4062 10.9688
C48.4062 6.09375 42.4062 4.40625 31.0938 4.40625
C26.5 4.40625 23.4062 4.40625 20.7969 5.10938
z
" id="URW_Palladio_L_Roman-68"/>
     <path d="
M2.29688 40.0781
L6 40.0781
C10 40.0781 10.4062 39.375 10.4062 32.7188
L10.4062 10.0469
C10.4062 3.70312 10.0938 3 6.70312 3
L2.09375 3
L2.09375 -0.109375
C9.29688 -0.109375 11.9062 -0.109375 14.4062 -0.109375
C16.4062 -0.109375 16.4062 -0.109375 28.7031 -0.109375
L28.7031 3
L23.5 3
C19 3 18.7969 3.29688 18.7969 9.96875
L18.7969 27.3594
C18.7969 33.4219 22.7969 38.4844 27.7031 38.4844
C30.7031 38.4844 32.7969 37.0781 34.4062 33.8906
L36.5 33.8906
L37.4062 45.8906
C36.2969 46.5938 34.5 47 32.7031 47
C29.7031 47 26.5 45.3906 24.4062 42.8906
L18.7969 36.2812
L18.7969 46.5938
L17.9062 47
C12.7969 44.8906 7.59375 43.4844 2.29688 42.8906
z
" id="URW_Palladio_L_Roman-114"/>
     <path d="
M0.703125 66.375
L6.29688 66.375
C8.09375 66.375 8.79688 65.2656 8.79688 62.25
L8.79688 10.0469
C8.79688 3.70312 8.5 3 5.09375 3
L0.59375 3
L0.59375 -0.109375
C7.40625 -0.109375 10.0938 -0.109375 13 -0.109375
C15.9062 -0.109375 18.5938 -0.109375 25.4062 -0.109375
L25.4062 3
L20.9062 3
C17.5 3 17.2031 3.70312 17.2031 10.0469
L17.2031 31.4219
C17.2031 35.9375 23.7969 40.875 29.9062 40.875
C36.5938 40.875 41 35.8906 41 28.2188
L41 -0.109375
C47.0938 -0.109375 47.2031 -0.109375 48.9062 -0.109375
C50.2969 -0.109375 50.2969 -0.109375 57.2031 -0.109375
L57.2031 2.79688
L53.0938 3.20312
C49.7031 3.20312 49.4062 3.8125 49.4062 10.2188
L49.4062 29.5625
C49.4062 41.2812 43.9062 47 32.7031 47
C29 47 26.9062 46.2969 24.7969 44.4844
L17.2031 37.875
L17.2031 72.0781
L16.2969 72.8906
C11.9062 71.1875 8.59375 70.375 0.703125 69.1719
z
" id="URW_Palladio_L_Roman-104"/>
     <path d="
M27.9062 47
C13.2969 47 3.20312 36.6719 3.20312 21.75
C3.20312 7.60938 12.0938 -2 25 -2
C40.4062 -2 51.4062 8.71875 51.4062 23.75
C51.4062 37.2812 41.5938 47 27.9062 47
M26.0938 43.6875
C35.2969 43.6875 42.0938 33.6719 42.0938 20.0469
C42.0938 8.51562 37 1.29688 28.9062 1.29688
C19.0938 1.29688 12.5 10.9219 12.5 25.1562
C12.5 37.1719 17.2969 43.6875 26.0938 43.6875" id="URW_Palladio_L_Roman-111"/>
     <path d="
M18.7969 46.7656
L17.9062 47.1562
C12.7969 45.0469 7.59375 43.6406 2.29688 43.0469
L2.29688 40.25
L6 40.25
C10 40.25 10.4062 39.5469 10.4062 32.8906
L10.4062 10.1719
C10.4062 3.8125 10.0938 3.10938 6.70312 3.10938
L2.09375 3.10938
L2.09375 0
C12.0938 0 12.0938 0.203125 14.5938 0.203125
C17.0938 0.203125 17.0938 0 27.0938 0
L27.0938 3.10938
L22.5 3.10938
C19.0938 3.10938 18.7969 3.8125 18.7969 10.1719
z

M14.2031 69
C11.2031 69 8.59375 66.3906 8.59375 63.375
C8.59375 60.4688 11.2031 57.875 14.0938 57.875
C17 57.875 19.7031 60.4688 19.7031 63.375
C19.7031 66.1875 17 69 14.2031 69" id="URW_Palladio_L_Roman-105"/>
     <path d="
M50.2969 47.0156
L49.4062 47.4219
C44.2969 45.3125 39.0938 43.9062 33.7969 43.3125
L33.7969 40.5
L37.5 40.5
C41.5 40.5 41.9062 39.7969 41.9062 33.1406
L41.9062 16.7188
C41.9062 14.5 40.5 11.6719 38.2031 9.35938
C35.4062 6.53125 32.2031 5.10938 28.2969 5.10938
C24.7969 5.10938 22 6.21875 20.4062 8.14062
C19 9.75 18.2969 12.875 18.2969 17.2969
L18.2969 47.0156
L17.4062 47.4219
C12.2969 45.3125 7.09375 43.9062 1.79688 43.3125
L1.79688 40.5
L5.5 40.5
C9.5 40.5 9.90625 39.7969 9.90625 33.1562
L9.90625 16.2344
C9.90625 9.17188 10.5 6.04688 12.2969 3.54688
C14.5 0.515625 18.2969 -1 24 -1
C28.5 -1 32.5 0.40625 35.2031 2.90625
L41.9062 9.14062
C41.9062 6.26562 41.7969 4.65625 41.5 0
C48.2031 0 48.2969 0 49.7969 0
C51.2031 0 51.2031 0 58.0938 0
L58.0938 2.90625
L54 3.3125
C50.5938 3.3125 50.2969 3.92188 50.2969 10.375
z
" id="URW_Palladio_L_Roman-117"/>
     <path d="
M23.7031 68.7812
L15.5938 68.7812
L14.5938 68.7812
L13.2031 68.7812
C12.9062 68.7812 11.4062 68.7812 9.09375 68.7812
L7.5 68.7812
L7 66
L10.5 66
C12.2031 66 14.4062 65.2812 15.5 64.3906
C17 63.1719 18.5 61.25 18.5 60.4531
C18.5 60.3438 18.5 60.0469 18.4062 59.7344
C18.4062 59.6406 18.4062 59.4219 18.2969 59.2344
C18.2031 58.4375 18.0938 57.7344 18 57.4375
L9.20312 10.3281
C8 4.15625 7.40625 3.375 3.79688 2.96875
L0.703125 2.67188
L0.203125 -0.109375
L11.2969 -0.109375
C12.5 -0.109375 12.5938 -0.109375 22.2969 -0.109375
L22.7969 2.57812
L18.5938 2.875
C14.5938 3.1875 13.7031 3.98438 13.7031 7.26562
C13.7031 8.0625 13.7969 9.15625 14 10.25
L22 56.4375
L55.7969 -1
L60.7969 -1
L70.2031 54.0469
C72.2969 65.2969 72.5 65.7031 76.2031 66
L79.9062 66
L80.4062 68.7812
L78.2969 68.7812
L69.4062 68.7812
L60.7969 68.7812
L58.9062 68.7812
L58.4062 66
L63.0938 66
C65.7031 66 66.7031 65.2969 66.7031 63.7031
C66.7031 63 66.4062 60.4062 66.2031 59.1094
L58.2031 10.3438
z
" id="URW_Palladio_L_Italic-78"/>
     <path d="
M51.9062 38
L54.4062 42.1094
L54 43.1094
L39.7969 43.1094
C36.0938 45.8906 32.5 47 27.5938 47
C23.2031 47 18.0938 45.625 14 43.25
C8.40625 40.1094 5.5 35.2812 5.5 29.2812
C5.5 22 10.0938 16.9844 17.5 16.1875
L9.59375 10
C8.59375 8.48438 8.09375 7.17188 8.09375 5.64062
C8.09375 2.8125 9.90625 1.1875 14.7031 -0.21875
L6 -4.9375
C4.59375 -5.73438 3.20312 -9.4375 3.20312 -12.5469
C3.20312 -21.6875 12.0938 -28 24.7969 -28
C39.9062 -28 51.7969 -18.4688 51.7969 -6.23438
C51.7969 0.984375 47 6 40 6
L24 6
C18.7969 6 16.4062 7.21875 16.4062 9.96875
C16.4062 11.3125 17.2031 12.4219 19.7969 14.6719
C20.4062 15.1719 20.5938 15.3906 21 15.7969
C22 15.6875 22.5938 15.5938 23.4062 15.5938
C27.7031 15.5938 33 17.4688 37.0938 20.3125
C41.5938 23.5469 43.7969 27.4844 43.7969 32.7031
C43.7969 34.6562 43.5 35.9375 42.7031 38
z

M24 43.5938
C30.7969 43.5938 35.4062 38.0938 35.4062 29.7656
C35.4062 23.4219 31.2031 19 25.0938 19
C18.4062 19 13.9062 24.0938 13.9062 31.6406
C13.9062 39.1719 17.5938 43.5938 24 43.5938
M28.7031 -1.01562
C40 -1.01562 43.9062 -3.3125 43.9062 -9.84375
C43.9062 -18.4688 36 -24.8906 25.5 -24.8906
C16.7969 -24.8906 10.7969 -19.7812 10.7969 -12.3438
C10.7969 -7.84375 13.4062 -3.71875 17.4062 -2.01562
C19 -1.21875 21.7969 -1.01562 28.7031 -1.01562" id="URW_Palladio_L_Roman-103"/>
     <path d="
M4.09375 14.3281
C4.09375 7.42188 3.79688 4.40625 3 0.40625
C8.20312 -1.29688 12.0938 -2 16.7031 -2
C29.7969 -2 39.0938 5.01562 39.0938 14.8281
C39.0938 17.9375 38.2031 20.2344 36.2969 22.25
C33.7031 24.75 30.4062 25.9531 21.5938 27.6562
C13.4062 29.2656 10.7031 31.2656 10.7031 35.875
C10.7031 40.875 14.2031 43.6875 20.2969 43.6875
C27 43.6875 32.0938 40.1875 32.0938 35.4688
L32.0938 33.1719
L34.9062 33.1719
C35 38.9844 35.0938 41.375 35.4062 44.4844
C30.0938 46.2969 26.5 47 22.4062 47
C10.7969 47 3.70312 41.4844 3.70312 32.4688
C3.70312 27.6562 5.90625 24.25 10.5 22.1406
C13.2031 20.9375 18.5 19.3438 25.2969 17.8281
C29.7969 16.8281 31.7031 14.7344 31.7031 10.9219
C31.7031 5.51562 26.7031 1.70312 19.5938 1.70312
C12.2969 1.70312 7.09375 5.20312 7.09375 10.2188
L7.09375 14.3281
z
" id="URW_Palladio_L_Roman-115"/>
     <path d="
M41.2031 43.7812
C35.5938 46.1875 32.7969 47 29.2969 47
C26.5938 47 24.2031 46.3906 21.7031 45.1094
L12.9062 40.5156
C7.20312 37.5156 3.5 30.2344 3.5 21.75
C3.5 13.7656 6.20312 7.1875 11.0938 3.1875
C14.5 0.296875 19.2031 -1 25.7031 -1
C27.7031 -1 30 -0.59375 30.5 -0.203125
L41.5938 9.10938
L41.0938 -0.109375
C46 -0.109375 47.5938 -0.109375 48.7969 -0.109375
C49.5938 -0.109375 51 -0.109375 53.0938 -0.109375
C53.7969 -0.109375 55.7969 -0.109375 57.9062 -0.109375
L57.9062 3
L53.2969 3
C49.9062 3 49.5938 3.70312 49.5938 10.0469
L49.5938 71.9844
L48.7031 72.7969
C44.2969 71.0938 41 70.2812 33.0938 69.0781
L33.0938 66.2812
L38.7031 66.2812
C40.5 66.2812 41.2031 65.1719 41.2031 62.1562
z

M41.2031 22.25
C41.2031 15.7656 41 14.7812 39.7031 12.4844
C36.9062 7.79688 32 4.71875 27.2969 4.71875
C18.5 4.71875 12.2031 13.1875 12.2031 25.0469
C12.2031 35.9062 17.5938 42.2812 26.5938 42.2812
C30.4062 42.2812 34.4062 40.9844 37.9062 38.5938
C40 37.2031 41.2031 35.9062 41.2031 35.0938
z
" id="URW_Palladio_L_Roman-100"/>
     <path d="
M22.5 48.5
C19.9062 46.5938 15.4062 43.2656 12.7969 40.8594
C5.5 34.1406 1.5 25.4062 1.5 17.7812
C1.5 11.9531 1.79688 6.9375 5.09375 3.01562
C7.29688 0.40625 9.59375 -1 13.2969 -1
C16.2031 -1 20 0.609375 22.7969 2.21875
C26.7031 4.40625 28.7031 6.42188 32.2031 9.32812
C33.2031 3.125 37.2969 -1 43 -1
C47.4062 -1 51.5 1.01562 56.2969 5.53125
C60.5938 9.65625 65 15.9688 67.9062 22.2969
C70.4062 27.6094 72.0938 34.4375 72.0938 38.6562
C72.0938 44.4844 69.5938 48.5 65.9062 48.5
C64.5 48.5 63.5 48.0938 62.5938 47.2812
L57.5938 42.5156
L58.7031 40.5938
C59.5938 41.2031 60.4062 41.5 61.4062 41.5
C64.2031 41.5 65.5938 39.1875 65.5938 35.1875
C65.5938 20.2656 56 4.03125 47.2031 4.03125
C42.2969 4.03125 39.2031 8.125 39.2031 14.75
C39.2031 16.25 39.2031 17.5469 39.7969 20.1562
L41.7031 27.875
C42.0938 29.5625 42.7031 30.9688 43.2969 32.6875
L42.2031 34.0781
L35.7031 31.4688
L33 19.25
C31.7969 15.8438 30.7969 11.6406 27.9062 9.125
C25.0938 6.73438 22.2031 5.125 18.7969 5.125
C15.9062 5.125 13.4062 6.4375 11.7969 8.4375
C9.70312 10.75 9.09375 14.375 9.09375 17.3594
C9.09375 26.6094 11.5 34.7344 20.0938 42.8594
C21.2031 43.8594 23.0938 45.5625 24.0938 46.6719
z
" id="Pazo_Math_Italic-119"/>
     <path d="
M20.4062 12.3281
C17.7031 11.4219 15.9062 10.8281 10.5938 9.3125
C9.90625 1.70312 7.40625 -4.8125 1.59375 -14.4219
L3 -15.5312
L7.09375 -13.625
C15.2031 -3.10938 19 3.20312 21.7969 10.9219
z
" id="URW_Palladio_L_Roman-44"/>
    </defs>
    <g transform="translate(172.744617049 67.0)scale(0.16 -0.16)">
     <use transform="scale(0.9962640099626402)" xlink:href="#URW_Palladio_L_Roman-68"/>
     <use transform="translate(77.11075228148351 0.0)scale(0.9962640099626402)" xlink:href="#URW_Palladio_L_Roman-105"/>
     <use transform="translate(106.10111374338419 0.0)scale(0.9962640099626402)" xlink:href="#URW_Palladio_L_Roman-97"/>
     <use transform="translate(155.9143142415162 0.0)scale(0.9962640099626402)" xlink:href="#URW_Palladio_L_Roman-103"/>
     <use transform="translate(211.3059912048568 0.0)scale(0.9962640099626402)" xlink:href="#URW_Palladio_L_Roman-114"/>
     <use transform="translate(250.65788753599784 0.0)scale(0.9962640099626402)" xlink:href="#URW_Palladio_L_Roman-97"/>
     <use transform="translate(300.4710880341299 0.0)scale(0.9962640099626402)" xlink:href="#URW_Palladio_L_Roman-109"/>
     <use transform="translate(388.44076230249846 0.0)scale(0.9962640099626402)" xlink:href="#URW_Palladio_L_Roman-97"/>
     <use transform="translate(463.1605630496965 0.0)scale(0.9962640099626402)" xlink:href="#URW_Palladio_L_Roman-100"/>
     <use transform="translate(524.0321937266501 0.0)scale(0.9962640099626402)" xlink:href="#URW_Palladio_L_Roman-101"/>
     <use transform="translate(596.6590890848771 0.0)scale(0.9962640099626402)" xlink:href="#URW_Palladio_L_Roman-112"/>
     <use transform="translate(656.5334828377959 0.0)scale(0.9962640099626402)" xlink:href="#URW_Palladio_L_Roman-111"/>
     <use transform="translate(710.9290630107799 0.0)scale(0.9962640099626402)" xlink:href="#URW_Palladio_L_Roman-108"/>
     <use transform="translate(739.9194244726806 0.0)scale(0.9962640099626402)" xlink:href="#URW_Palladio_L_Roman-111"/>
     <use transform="translate(794.3150046456648 0.0)scale(0.9962640099626402)" xlink:href="#URW_Palladio_L_Roman-115"/>
     <use transform="translate(861.4630712221748 0.0)scale(0.9962640099626402)" xlink:href="#URW_Palladio_L_Roman-101"/>
     <use transform="translate(934.0899665804017 0.0)scale(0.9962640099626402)" xlink:href="#URW_Palladio_L_Roman-122"/>
     <use transform="translate(983.9031670785337 0.0)scale(0.9962640099626402)" xlink:href="#URW_Palladio_L_Roman-101"/>
     <use transform="translate(1031.6234621876947 0.0)scale(0.9962640099626402)" xlink:href="#URW_Palladio_L_Roman-114"/>
     <use transform="translate(1069.1827795425359 0.0)scale(0.9962640099626402)" xlink:href="#URW_Palladio_L_Roman-111"/>
     <use transform="translate(1123.57835971552 0.0)scale(0.9962640099626402)" xlink:href="#URW_Palladio_L_Roman-115"/>
     <use transform="translate(1165.819826042964 0.0)scale(0.9962640099626402)" xlink:href="#URW_Palladio_L_Roman-58"/>
     <use transform="translate(1221.610458583048 0.0)scale(0.9962640099626402)" xlink:href="#URW_Palladio_L_Roman-66"/>
     <use transform="translate(1282.4820892600017 0.0)scale(0.9962640099626402)" xlink:href="#URW_Palladio_L_Roman-117"/>
     <use transform="translate(1342.5558239852508 0.0)scale(0.9962640099626402)" xlink:href="#URW_Palladio_L_Roman-116"/>
     <use transform="translate(1375.0329118588497 0.0)scale(0.9962640099626402)" xlink:href="#URW_Palladio_L_Roman-116"/>
     <use transform="translate(1407.5099997324487 0.0)scale(0.9962640099626402)" xlink:href="#URW_Palladio_L_Roman-101"/>
     <use transform="translate(1455.2302948416097 0.0)scale(0.9962640099626402)" xlink:href="#URW_Palladio_L_Roman-114"/>
     <use transform="translate(1494.5821911727508 0.0)scale(0.9962640099626402)" xlink:href="#URW_Palladio_L_Roman-119"/>
     <use transform="translate(1577.670284285492 0.0)scale(0.9962640099626402)" xlink:href="#URW_Palladio_L_Roman-111"/>
     <use transform="translate(1632.0658644584762 0.0)scale(0.9962640099626402)" xlink:href="#URW_Palladio_L_Roman-114"/>
     <use transform="translate(1671.4177607896172 0.0)scale(0.9962640099626402)" xlink:href="#URW_Palladio_L_Roman-116"/>
     <use transform="translate(1703.8948486632162 0.0)scale(0.9962640099626402)" xlink:href="#URW_Palladio_L_Roman-104"/>
     <use transform="translate(1761.8769093438668 0.0)scale(0.9962640099626402)" xlink:href="#URW_Palladio_L_Roman-44"/>
     <use transform="translate(1812.9354094508874 0.0)scale(0.9962640099626402)" xlink:href="#Pazo_Math_Italic-119"/>
     <use transform="translate(1919.2135631518527 0.0)scale(1.0381069159596825)" xlink:href="#CMR10-61"/>
     <use transform="translate(2028.8291921651232 0.0)scale(0.9962640099626402)" xlink:href="#URW_Palladio_L_Roman-49"/>
     <use transform="translate(2078.642392663255 0.0)scale(0.9962640099626402)" xlink:href="#URW_Palladio_L_Roman-44"/>
     <use transform="translate(2133.1878016033625 0.0)scale(0.9962640099626402)" xlink:href="#URW_Palladio_L_Italic-78"/>
     <use transform="translate(2243.950192272144 0.0)scale(1.0381069159596825)" xlink:href="#CMR10-61"/>
     <use transform="translate(2353.565821285414 0.0)scale(0.9962640099626402)" xlink:href="#URW_Palladio_L_Roman-49"/>
     <use transform="translate(2403.3790217835462 0.0)scale(0.9962640099626402)" xlink:href="#URW_Palladio_L_Roman-48"/>
    </g>
   </g>
  </g>
 </g>
 <defs>
  <clipPath id="p033683574c">
   <rect height="558.0" width="558.0" x="90.0" y="72.0"/>
  </clipPath>
 </defs>
</svg>
